<svg id="Layer_1" data-name="Layer 1" xmlns="http://www.w3.org/2000/svg" viewBox="0 0 655.65 583"><defs><style>.cls-1{fill:#443429;}</style></defs><title>00_zanpan_identityArtboard 1</title><path class="cls-1" d="M323.41,552A255.74,255.74,0,0,1,223.89,60.74a255.74,255.74,0,0,1,199,471.16A254.07,254.07,0,0,1,323.41,552Zm0-506.47a250.86,250.86,0,0,0-97.62,481.89A250.86,250.86,0,0,0,421,65.24,249.22,249.22,0,0,0,323.41,45.53Z"/><path class="cls-1" d="M238,240.84c-3.12,2.16-10.09,7-13,8.53l-31.54-31.54.36-1.56c19.7-3.84,39.77-7.81,59.29-11.83l-8.59-8.59c-6.25-6.25-8-6.67-10.39-6.19a23.48,23.48,0,0,0-7.81,3.24l-1.86-2c4.56-4.09,9.25-8,12.31-10.87l1.5,1.5c-.6,2.28,0,3,1.86,4.87l24.27,24.27L264,212c-19.52,3.9-38.75,7.75-58.57,12.07a95.54,95.54,0,0,0,7.93,8.65c5.71,5.71,9.61,8.77,13,8.77,2.7.06,5.65-.84,10.27-3.06Z"/><path class="cls-1" d="M301,328l2-1.83c4,3.25,5,3,6.87-.29,1.44-2.58,3.42-6.34,5.4-10.21l-11.39-12.49c-3.07,1.3-6.25,2.6-9.45,4.14-4.36,2-4.83,3-1.22,8.12l-2,1.83-12.65-13.87,2-1.83c4.29,3.56,5.59,3.87,12.94,1.08l44.19-16.73L341,288c-7.26,14-14.95,28.24-22,42.16-3.63,7.11-3.58,8.55-.42,13l-2,1.83Zm26.29-34.33-.17-.19c-6.49,2.59-12.93,5.36-19.24,7.89l9.5,10.42Z"/><path class="cls-1" d="M441.07,395c-3.42-3.06-5.59-3.54-8.59-1.14A107.1,107.1,0,0,0,422,403.37l-24,24-2.52-2.52,5.29-55.75-.12-.12-14.12,14.12a128.61,128.61,0,0,0-9.43,10.27c-2.52,3.12-2.34,5.23,1.74,9.79L376.92,405l-14.54-14.54,1.92-1.92c3.6,3.12,5.95,3.66,9,1.26a130.92,130.92,0,0,0,10.51-9.55l12.79-12.79c4.09-4.09,4.87-5,5.11-7.51.3-2.7-.48-4.45-2.94-7.39l1.92-1.92L411,361l-4,51.42.18.18,12-12c5.41-5.41,7.93-8.53,9.55-10.39,2.22-2.94,1.92-5.17-2.16-9.73l1.92-1.92L443,393Z"/><path class="cls-1" d="M209.86,371.47c4.57-4.57,8.65-7.33,12.8-8,4.51-.78,9,.6,12.91,4.5,8,8,5.77,17.54.36,24.51a17.15,17.15,0,0,1-2.46,2.58l-5.29,3.24L236.9,407c5,5,5.95,4.87,11.59.06l1.92,1.92L232.63,426.8l-1.92-1.92c4.21-5,4.33-6-.72-11.05l-23.37-23.37c-5.17-5.17-6.07-5-10.69-1.08l-2-2ZM226,396.1a15.56,15.56,0,0,0,4.26-3.06c2.82-2.82,5.89-9.37-2-17.3-6.67-6.67-13-5.11-17.12-1a6.6,6.6,0,0,0-2,3.24c-.06.78.42,1.62,1.62,2.82Z"/><path class="cls-1" d="M410.88,181.95c-3.06,3.42-3.54,5.59-1.14,8.59a107.14,107.14,0,0,0,9.55,10.51l24,24-2.52,2.52L385,222.25l-.12.12L399,236.49a128.58,128.58,0,0,0,10.27,9.43c3.12,2.52,5.23,2.34,9.79-1.74L421,246.1l-14.54,14.54-1.92-1.92c3.12-3.6,3.66-5.95,1.26-9a130.8,130.8,0,0,0-9.55-10.51l-12.79-12.79c-4.09-4.09-5-4.87-7.51-5.11-2.7-.3-4.45.48-7.39,2.94l-1.92-1.92L376.94,212l51.42,4,.18-.18-12-12c-5.41-5.41-8.53-7.93-10.39-9.55-2.94-2.22-5.17-1.92-9.73,2.16l-1.92-1.92L409,180Z"/></svg>