<svg id="Layer_1" data-name="Layer 1" xmlns="http://www.w3.org/2000/svg" viewBox="0 0 655.65 583"><defs><style>.cls-1{fill:none;stroke:#afafaf;stroke-miterlimit:10;}</style></defs><title>015_zanpan_logoArtboard 1</title><path d="M248.93,238.3c-3.16,2.19-10.22,7.05-13.14,8.64L203.87,215l.36-1.58c19.95-3.89,40.26-7.91,60-12l-8.7-8.7c-6.32-6.32-8.09-6.75-10.52-6.26a23.77,23.77,0,0,0-7.91,3.28l-1.89-2c4.62-4.14,9.37-8.15,12.47-11l1.52,1.52c-.61,2.31,0,3,1.89,4.93l24.57,24.57-.49,1.34c-19.76,4-39.23,7.84-59.29,12.22a96.73,96.73,0,0,0,8,8.76c5.78,5.78,9.73,8.88,13.14,8.88,2.74.06,5.72-.85,10.4-3.1Z"/><path d="M315.56,326l2-1.92c4.15,3.17,5.19,2.88,6.94-.5,1.38-2.65,3.26-6.52,5.15-10.5l-11.91-12.29c-3.06,1.41-6.25,2.82-9.44,4.48-4.35,2.18-4.79,3.21-1,8.26l-2,1.92-13.23-13.65,2-1.92c4.45,3.47,5.78,3.74,13.13.69l44.2-18.29,3.38,2c-6.91,14.37-14.26,29-21,43.35-3.46,7.31-3.36,8.77,0,13.2l-2,1.92Zm25.55-35.55-.18-.19C334.44,293,328,296,321.7,298.81l9.94,10.25Z"/><path d="M454.49,394.33c-3.47-3.1-5.66-3.59-8.7-1.16a108.43,108.43,0,0,0-10.64,9.67l-24.26,24.27-2.55-2.55,5.35-56.44-.12-.12-14.29,14.29a130.2,130.2,0,0,0-9.55,10.4c-2.55,3.16-2.37,5.29,1.76,9.91l-1.95,1.95-14.72-14.72,1.95-1.95c3.65,3.16,6,3.71,9.06,1.28a132.55,132.55,0,0,0,10.64-9.67l13-13c4.14-4.14,4.93-5,5.17-7.6.3-2.74-.49-4.5-3-7.48l1.95-1.95L424,360,420,412l.18.18L432.35,400c5.47-5.47,8-8.64,9.67-10.52,2.25-3,1.95-5.23-2.19-9.85l1.95-1.95,14.66,14.66Z"/><path d="M220.41,370.56c4.62-4.62,8.76-7.42,13-8.09,4.56-.79,9.12.61,13.07,4.56,8.09,8.09,5.84,17.76.37,24.81a17.36,17.36,0,0,1-2.49,2.62L239,397.74l8.82,8.82c5.11,5.11,6,4.93,11.74.06l1.95,1.95-18,18-1.95-1.95c4.26-5.11,4.38-6.08-.73-11.19l-23.66-23.66c-5.23-5.23-6.14-5-10.83-1.09l-2-2Zm16.3,24.93a15.75,15.75,0,0,0,4.32-3.1c2.86-2.86,6-9.49-2.07-17.51-6.75-6.75-13.2-5.17-17.33-1a6.68,6.68,0,0,0-2.07,3.28c-.06.79.43,1.64,1.64,2.86Z"/><path d="M423.92,178.68c-3.1,3.47-3.59,5.66-1.16,8.7A108.47,108.47,0,0,0,432.44,198l24.27,24.27-2.55,2.55-56.44-5.35-.12.12,14.29,14.29a130.18,130.18,0,0,0,10.4,9.55c3.16,2.55,5.29,2.37,9.91-1.76l1.95,1.95-14.72,14.72-1.95-1.95c3.16-3.65,3.71-6,1.28-9.06a132.42,132.42,0,0,0-9.67-10.64l-13-13c-4.14-4.14-5-4.93-7.6-5.17-2.74-.3-4.5.49-7.48,3l-1.95-1.95,10.46-10.46,52.06,4,.18-.18-12.16-12.16c-5.47-5.47-8.64-8-10.52-9.67-3-2.25-5.23-1.95-9.85,2.19l-1.95-1.95L422,176.73Z"/><rect x="329.03" y="125.1" width="2.92" height="355.17" transform="translate(-117.16 323.88) rotate(-45.2)"/><rect x="152.91" y="301.22" width="355.17" height="2.92" transform="translate(-117.3 320.8) rotate(-44.8)"/><line class="cls-1" x1="128.15" y1="176.89" x2="533.59" y2="176.89"/><line class="cls-1" x1="204.66" y1="511.01" x2="204.66" y2="105.57"/><line class="cls-1" x1="456.22" y1="511.01" x2="456.22" y2="105.57"/><line class="cls-1" x1="128.15" y1="426.72" x2="533.59" y2="426.72"/></svg>