<svg id="Layer_1" data-name="Layer 1" xmlns="http://www.w3.org/2000/svg" viewBox="0 0 655.65 583"><defs><style>.cls-1{fill:#443429;}</style></defs><title>012_zanpan_logoArtboard 1</title><path class="cls-1" d="M327.83,552.92a262.2,262.2,0,0,1-102-503.66A262.2,262.2,0,0,1,429.86,532.32,260.49,260.49,0,0,1,327.83,552.92Zm0-519.26A257.2,257.2,0,0,0,227.74,527.72,257.2,257.2,0,0,0,427.91,53.87,255.52,255.52,0,0,0,327.83,33.66Z"/><path class="cls-1" d="M245.44,236.94c-3.2,2.22-10.35,7.14-13.3,8.74l-32.33-32.33.37-1.6c20.2-3.94,40.77-8,60.79-12.13l-8.81-8.81c-6.4-6.4-8.19-6.84-10.65-6.34a24.07,24.07,0,0,0-8,3.33l-1.91-2c4.68-4.19,9.48-8.25,12.63-11.15l1.54,1.54c-.62,2.34,0,3.08,1.91,5L272.54,206l-.49,1.36c-20,4-39.72,7.94-60,12.38a98,98,0,0,0,8.13,8.87c5.85,5.85,9.85,9,13.3,9,2.77.06,5.79-.86,10.53-3.14Z"/><path class="cls-1" d="M349.89,315.63,348,313.58c3.33-4.1,3.07-5.16-.29-7-2.64-1.48-6.5-3.51-10.47-5.54l-12.81,11.68c1.34,3.14,2.66,6.41,4.24,9.69,2.08,4.47,3.1,5,8.33,1.25l1.88,2.06-14.22,13-1.88-2.06c3.65-4.39,4-5.74,1.1-13.27L306.74,278l2.13-3.35c14.33,7.44,28.95,15.33,43.23,22.58,7.29,3.73,8.77,3.67,13.36.43l1.88,2.06Zm-35.2-27-.19.18c2.65,6.66,5.49,13.26,8.09,19.73l10.68-9.74Z"/><path class="cls-1" d="M453.6,394.95c-3.51-3.14-5.73-3.63-8.81-1.17A109.8,109.8,0,0,0,434,403.57l-24.57,24.57-2.59-2.59,5.42-57.15-.12-.12-14.47,14.47A131.85,131.85,0,0,0,388,393.29c-2.59,3.2-2.4,5.36,1.79,10l-2,2-14.9-14.9,2-2c3.7,3.2,6.1,3.76,9.18,1.29a134.23,134.23,0,0,0,10.78-9.79L408,366.8c4.19-4.19,5-5.11,5.24-7.7.31-2.77-.49-4.56-3-7.58l2-2,10.59,10.59-4.06,52.72.18.18,12.32-12.32c5.54-5.54,8.13-8.75,9.79-10.65,2.28-3,2-5.3-2.22-10l2-2L455.58,393Z"/><path class="cls-1" d="M216.56,370.87c4.68-4.68,8.87-7.51,13.12-8.19,4.62-.8,9.24.62,13.24,4.62,8.19,8.19,5.91,18,.37,25.13a17.58,17.58,0,0,1-2.53,2.65l-5.42,3.33,8.93,8.93c5.17,5.17,6.1,5,11.89.06l2,2L239.9,427.6l-2-2c4.31-5.17,4.43-6.16-.74-11.33l-24-24c-5.3-5.3-6.22-5.11-11-1.11l-2-2Zm16.51,25.25a16,16,0,0,0,4.37-3.14c2.89-2.89,6-9.61-2.09-17.74-6.84-6.84-13.36-5.23-17.55-1a6.77,6.77,0,0,0-2.09,3.33c-.06.8.43,1.66,1.66,2.89Z"/><path class="cls-1" d="M422.65,176.56c-3.14,3.51-3.63,5.73-1.17,8.81a109.85,109.85,0,0,0,9.79,10.78l24.57,24.57-2.59,2.59-57.15-5.42L396,218l14.47,14.47A131.83,131.83,0,0,0,421,242.15c3.2,2.59,5.36,2.4,10-1.79l2,2-14.9,14.9-2-2c3.2-3.7,3.76-6.1,1.29-9.18a134.1,134.1,0,0,0-9.79-10.78L394.51,222.2c-4.19-4.19-5.11-5-7.7-5.24-2.77-.31-4.56.49-7.58,3l-2-2,10.59-10.59,52.72,4.06.18-.18L428.44,199c-5.54-5.54-8.75-8.13-10.65-9.79-3-2.28-5.3-2-10,2.22l-2-2,14.84-14.84Z"/></svg>